PathFileType	4	(X/Y/Z)	pose_F01_0-91.trc
DataRate	CameraRate	NumFrames	NumMarkers	Units	OrigDataRate	OrigDataStartFrame	OrigNumFrames
30	30	9	21	m	30	79	91
Frame#	Time	CHip			RHip			RKnee			RAnkle			RBigToe			RSmallToe			RHeel			LHip			LKnee			LAnkle			LBigToe			LSmallToe			LHeel			Neck			Nose			RShoulder			RElbow			RWrist			LShoulder			LElbow			LWrist			
		X1	Y1	Z1	X2	Y2	Z2	X3	Y3	Z3	X4	Y4	Z4	X5	Y5	Z5	X6	Y6	Z6	X7	Y7	Z7	X8	Y8	Z8	X9	Y9	Z9	X10	Y10	Z10	X11	Y11	Z11	X12	Y12	Z12	X13	Y13	Z13	X14	Y14	Z14	X15	Y15	Z15	X16	Y16	Z16	X17	Y17	Z17	X18	Y18	Z18	X19	Y19	Z19	X20	Y20	Z20	X21	Y21	Z21	
79	2.6333333333333333	-0.16320939523454026	1.8802082445164146	-0.6348880042972176	-0.17457733513842522	1.876941890248034	-0.575510282954012	-0.14310046024163975	1.7447994974670205	-0.6192273339573037	-0.1306740684467215	1.6158738087164686	-0.6413732068742426	-0.16279191703698098	1.5854801738429498	-0.5606524930035867	-0.1586157990733264	1.5940039197608993	-0.5572709623678106	-0.1242670836055919	1.604815191418216	-0.6637177822616603	-0.15440026942509769	1.884476520016636	-0.6980443545325047	-0.1924249189812515	1.7401311660134462	-0.6467347064582895	-0.22997394346041614	1.5619311209838616	-0.6144517972052527	-0.3743055837048464	1.489535069863985	-0.9322261828241305	-0.3571330176839682	1.4950628734872191	-0.9548873189171059	-0.22371072150010188	1.5501401789685716	-0.6062753282480905	-0.1593997044892708	2.038346455982475	-0.6488122159230445	-0.18740972171111472	2.1042244125431333	-0.6273895802179524	-0.1731923148460257	2.033220094336601	-0.5603495473428973	-0.1903737331389984	1.9877718456337705	-0.4094712564391123	-2.3329062115664962	1.9331998405230768	2.339981748473495	-0.1403119696428995	2.0448738924167875	-0.7360464527801285	-0.12325063135610584	1.9677810660072297	-0.7978612806448684	-0.13127761896389648	1.8880496662154789	-0.8099976865599219
80	2.6666666666666665	-0.16929532498389108	1.8776633065178079	-0.6363095768320947	-0.17702042196918422	1.8730659410729433	-0.5727404921051978	-0.14851574266422868	1.7406966485570294	-0.6171753256188756	-0.12896119115307436	1.6157201490168567	-0.6348980342859886	-0.1661513543717155	1.582336933587703	-0.5524203564097654	-0.16015039113529472	1.592688426594769	-0.5510259681084935	-0.12334158495539159	1.6044499472322566	-0.6603956518427369	-0.15839053051427113	1.881995803377197	-0.7015869802637047	-0.19543082187310792	1.735232520019281	-0.6512627705660382	-0.24019162533694238	1.5571780457016284	-0.6040851751885878	-0.3848601195169804	1.4878744689402332	-0.9059014499220195	-0.3668101953765282	1.4869917739472087	-0.9314122267037582	-0.2360758923526471	1.5481000125261362	-0.5939944310651688	-0.16455809820474862	2.0372738595801247	-0.6475143551034452	-0.18848219387078474	2.1032595043705626	-0.6305987716399521	-0.17819436465171934	2.0319429491019623	-0.5584795911924373	-0.1953387073260712	1.9855467544966214	-0.4079127064084846	-2.3107903696012286	1.9252090315558168	2.2948836633782816	-0.14507141192595602	2.0442148630532277	-0.7433326951697504	-0.12638216896926868	1.9664702752571488	-0.7984376105840716	-0.13283514735936588	1.8868490254536188	-0.8161087402201329
81	2.7	-0.17668321932816589	1.874816606443118	-0.6321200966790751	-0.18427743346209555	1.8701844913402963	-0.5685944249472072	-0.15372809550090655	1.737733136471943	-0.61527352949025	-0.12983983969719665	1.6157532633160505	-0.6379894171272333	-0.16493962485392852	1.5852003385538085	-0.5584082742257481	-0.16009360470144685	1.5927630611691106	-0.5512138375904625	-0.12356941773541921	1.60579796279869	-0.6602498731290528	-0.16519467907473526	1.8765375907718251	-0.693945518476925	-0.2004709756015955	1.7270437624728678	-0.6493988556663473	-0.24112009379621654	1.553446481162862	-0.6029668659671494	-0.38836604860913476	1.479400939868554	-0.8967787317247987	-0.37361074001030314	1.4787126638202654	-0.9211719547621158	-0.23875906511940698	1.5475930855601294	-0.5917863592500691	-0.1676393627550451	2.037506102862612	-0.6482620505825895	-0.19239270674842524	2.1060369162926422	-0.6356011290794515	-0.18336473306490106	2.0320626271650255	-0.5576407203687302	-0.20421597368003844	1.983134036676327	-0.40230103792761535	-0.22070234827569407	1.9812102106162768	-0.24058902559412793	-0.15045481695452081	2.044578771940686	-0.7423718488271296	-0.12954090127066994	1.965307589878448	-0.7993101584429719	-0.13443048056867252	1.8843741477171736	-0.8219356475002291
82	2.7333333333333334	-0.18738480986954734	1.8746508507097583	-0.6294410050285957	-0.19477022893112653	1.872793625237077	-0.5663487011678234	-0.1603903094266246	1.741446118015558	-0.6086860268828683	-0.13161342554856367	1.6223905472037983	-0.6323996726436185	-0.16594975389610298	1.5853415509142201	-0.5617368787693837	-0.16016038382970083	1.5927955191491256	-0.5511916775621776	-0.12523193794173412	1.6144436853534545	-0.6549704050295272	-0.17682158769576636	1.8792373956861266	-0.6945906573038105	-0.21150165085185285	1.7280735590216325	-0.6423289498432967	-0.24739890718770433	1.5430867340515237	-0.5946655121262756	-0.3896035525517288	1.4773662413754085	-0.8899030983476842	-0.3747001922425228	1.4773673596964079	-0.9155825534165384	-0.2416227344245095	1.533496966391058	-0.5820915610843942	-0.17375256586275128	2.0403604969991296	-0.6508302789239344	-0.2024641544794896	2.111241202715997	-0.6342368200974083	-0.1903572088311728	2.0344512512686483	-0.5545980430967506	-0.2102761795350745	1.980952001909483	-0.40436842430768577	-0.22705401257909746	1.9792025623305187	-0.23692235157607872	-0.1566176560249379	2.046995622825612	-0.7446787170225535	-0.14039114580840514	1.9665078159293854	-0.7962741942133903	-0.13854644969130822	1.8830914361107682	-0.8256755426399556
83	2.7666666666666666	-0.19334334284865481	1.878452000995388	-0.6318538759578918	-0.201448139394833	1.875381960411308	-0.5719580991357939	-0.1688177396965886	1.7450256790647176	-0.6002483307915732	-0.13299264284419895	1.6280844332306563	-0.6276424300878022	-0.16827825307592392	1.586727743918981	-0.5592771869956964	-0.1625050274625348	1.5942458212545916	-0.5487336512355752	-0.12894900881037685	1.619537496037354	-0.651640565252612	-0.1856827063245537	1.8813037235266723	-0.6974878404875285	-0.22346901498236418	1.721506156249801	-0.6417994589355298	-0.2452303239455421	1.5422911524599503	-0.5970068941555929	-0.38966355529867625	1.477280098380061	-0.8898571274558572	-0.37470401561502203	1.4774737384435574	-0.9156434442665649	-0.237659731166915	1.5320044474958967	-0.5861283400742368	-0.1870362642079304	2.0441964137263122	-0.6503311889061785	-0.21045655401330107	2.117590121865693	-0.6349709825190454	-0.1995484041994964	2.037545270447734	-0.5589685599179129	-0.2173064079807369	1.9827575077074449	-0.4102010220916994	-0.22487967007585372	1.9739269940547246	-0.22906336670523522	-0.16795079977368296	2.0507691856177126	-0.7453514879124349	-0.1480343522810447	1.9667020245003664	-0.8036946779927883	-0.1432655079837812	1.8845247467791348	-0.832874419855349
84	2.8	-0.20015518822921213	1.8797683995586967	-0.6369727553778995	-0.20748605531840933	1.8751395751711455	-0.5739285507819548	-0.1794547093212151	1.7403542986219287	-0.5880774984964564	-0.13889207761361458	1.636196149737134	-0.6224896309276629	-0.16707942629128866	1.5870077592799694	-0.5650295347248907	-0.16009923955633687	1.5955781935359763	-0.5516384305371254	-0.1320971831604784	1.6326892826866466	-0.6459666998309481	-0.1916850208522921	1.882313871692379	-0.6993190067415579	-0.2306007935028427	1.718455892314665	-0.6342874645507319	-0.24873360844549003	1.5409040211229232	-0.5926554634202522	-0.39398932652444346	1.4773945117355805	-0.8831789296225061	-0.3790502076113134	1.4779025845472793	-0.908919056062586	-0.23792498317875502	1.5281006182909458	-0.5889425783583057	-0.1930161768425834	2.0480398749299833	-0.6520293188925914	-0.2174237112915156	2.1251311066940164	-0.6325564357048999	-0.20939493427930678	2.041305745160198	-0.5565686751125575	-0.22024799311170404	1.9826965874194853	-0.4113061999920179	-0.22256422890465902	1.9657284363021177	-0.2342728438066763	-0.17677505437985863	2.0561874135948774	-0.7476000584927187	-0.15350452611734666	1.9690844103273004	-0.8024384525479809	-0.15254508547612827	1.8870685579548143	-0.8352447161408646
85	2.8333333333333335	-0.20840033500407193	1.882011033990585	-0.636728423320321	-0.21894137718199116	1.878668182341426	-0.5664773454528366	-0.2025179254186249	1.7417617381623576	-0.5722061659772882	-0.14784560017667567	1.6433921234816462	-0.6184534708733873	-0.17003291332018206	1.587043490484424	-0.5750483072578999	-0.16417455516219373	1.5954283665162956	-0.5560298372176445	-0.1366108586191568	1.6421177477530977	-0.6470537660504304	-0.19700633016488764	1.885277859061075	-0.6981911648460204	-0.23651989466953216	1.7194896398975903	-0.6326473295660241	-0.2512206995269536	1.5398501346680251	-0.5899068448142328	-0.3940353354945577	1.4771392159329408	-0.8832788807476564	-0.379068692547233	1.4766795275824869	-0.9092948596972744	-0.23831699037365803	1.5275537181341774	-0.5880241540638288	-0.20005281865318209	2.0526861339248734	-0.6486150282312222	-0.22448277324427332	2.1286363542690054	-0.6285507850290901	-0.2163841117341249	2.043875951846398	-0.5534343090934695	-0.22673811713069145	1.98358453756189	-0.40748322640431256	-0.23167822019260406	1.9602849592535656	-0.23082465526555923	-0.18279992119394736	2.0602343361514266	-0.7490999058668677	-0.16484539057583117	1.9728708387014193	-0.8024764030887943	-0.1632043700725969	1.8868192137856459	-0.8320207187845391
86	2.8666666666666667	-0.22473171500363348	1.8857458128065334	-0.6248169055991425	-0.23571225103165486	1.883888771775985	-0.5579046435308296	-0.2485674286639754	1.7160561185322027	-0.5287155748312831	-0.1836117921620238	1.6391806291305402	-0.5850402274427334	-0.1791398313506814	1.577493487265963	-0.5690721012456296	-0.1805755031004355	1.5853284824951714	-0.5419954294393114	-0.17313592202917197	1.6407200087606104	-0.6094955061505445	-0.21559873823267237	1.8890827234088772	-0.6922769073717546	-0.23821187423010895	1.7118322513030304	-0.6384228457883384	-0.25190189650893147	1.5349799935784179	-0.5929480028722464	-0.4306987641186783	1.4738261723650985	-1.0008579340663546	-0.41776827956174145	1.4739910453955378	-1.0366203339369164	-0.2375920443200609	1.5255291595058205	-0.5893584593496193	-0.20921268802919696	2.0578230749564916	-0.6429397505387792	-0.23857628352702623	2.133585493972746	-0.621399571928106	-0.22099792671788332	2.053458595295944	-0.5525952638286269	-0.22690861136086843	1.983691483831228	-0.41625237557410466	-0.2338054664034906	1.943786567999608	-0.2252315656382656	-0.1945445124001762	2.066033235201051	-0.7412706668615248	-0.1752589626018698	1.9777549488456305	-0.7997742266529125	-1.0255487617607144	1.816974773392991	0.010505703483941654
87	2.9	-0.22953866496678407	1.8822855673487384	-0.622767116844765	-0.23946578619733852	1.8803924200789026	-0.5527611853651537	-0.2645308494287928	1.7052774951807996	-0.5280811232207895	-0.20237869717711376	1.6162143595477383	-0.5607068491571917	-0.2423752460534126	1.555888243056593	-0.642250810080323	-0.19697645103867725	1.5752285984740473	-0.5279610216609784	-0.19223365640372506	1.6145643488850632	-0.5822664130407968	-0.21840642922808018	1.885988002841176	-0.6926210990804149	-0.23873006195788637	1.7077498717322648	-0.6418394896924874	-0.24938692225943346	1.5391374589401203	-0.5961949576034073	-0.42236468334212274	1.4777114104042546	-0.9761011705917689	-0.4082184716584071	1.4741509475262007	-1.0047665447798189	-0.23676967201329946	1.5276781046253065	-0.5857243413031266	-0.213087160933927	2.0605171905703026	-0.6470207084396088	-0.24363137961148243	2.137438043870567	-0.6209713370640754	-0.22498831560179214	2.0558729634288704	-0.5487903211101322	-0.22787457399404604	1.9823476140948315	-0.4271973369389235	-0.23305011276191362	1.9300602144391235	-0.24171112813445145	-0.19962723109197358	2.0707773914904304	-0.7404354150752639	-0.18302788205829856	1.9789854653301435	-0.7960801144653162	-1.004251841752146	1.818098223843222	-0.01523875233139232
